{
	"asset":{
		"generator":"Khronos glTF Blender I/O v3.6.27",
		"version":"2.0"
	},
	"scene":0,
	"scenes":[
		{
			"name":"Scene",
			"nodes":[
				18
			]
		}
	],
	"nodes":[
		{
			"name":"toge_01",
			"rotation":[
				0.05357101932168007,
				0.0667988732457161,
				0.7848438620567322,
				0.6137492656707764
			],
			"scale":[
				1,
				1.0000001192092896,
				0.9999999403953552
			]
		},
		{
			"name":"toge_02",
			"rotation":[
				-0.19022688269615173,
				0.2807078957557678,
				0.2807079255580902,
				0.897897481918335
			]
		},
		{
			"name":"toge_03",
			"rotation":[
				-0.9813137054443359,
				0.11048027127981186,
				0.11048011481761932,
				0.11230180412530899
			],
			"scale":[
				0.9999992847442627,
				0.9999998807907104,
				0.9999995231628418
			]
		},
		{
			"name":"toge_04",
			"rotation":[
				0.8512669801712036,
				-0.21160902082920074,
				-0.21160900592803955,
				0.4310310482978821
			],
			"scale":[
				1,
				1,
				1.000000238418579
			]
		},
		{
			"name":"toge_05",
			"rotation":[
				0.39124512672424316,
				-0.5184373259544373,
				-0.5184373259544373,
				0.5562129616737366
			],
			"scale":[
				0.9999998807907104,
				1,
				1
			]
		},
		{
			"name":"toge_06",
			"rotation":[
				0.08735449612140656,
				-0.09746887534856796,
				-0.09746889770030975,
				0.986594557762146
			]
		},
		{
			"name":"toge_07",
			"rotation":[
				-0.29286524653434753,
				-0.3704703450202942,
				-0.3704703450202942,
				0.799833357334137
			]
		},
		{
			"name":"toge_08",
			"rotation":[
				-0.5955011248588562,
				-0.5253535509109497,
				-0.5253534317016602,
				0.30559101700782776
			]
		},
		{
			"name":"toge_09",
			"rotation":[
				-0.4762878119945526,
				0.06582137942314148,
				0.06582142412662506,
				0.8743483424186707
			],
			"scale":[
				1.0000001192092896,
				0.9999998807907104,
				1
			]
		},
		{
			"name":"toge_10",
			"rotation":[
				-0.8864360451698303,
				-0.04884492605924606,
				-0.04884488135576248,
				0.45766744017601013
			]
		},
		{
			"name":"gaisou_01",
			"rotation":[
				0.023657262325286865,
				-0.5153177976608276,
				-0.5153177976608276,
				0.6843504905700684
			],
			"scale":[
				1,
				1.0000001192092896,
				1
			]
		},
		{
			"name":"gaisou_02",
			"rotation":[
				-0.9243491888046265,
				-0.25715532898902893,
				-0.2571552097797394,
				0.1154162809252739
			],
			"scale":[
				1.000001072883606,
				1.0000003576278687,
				1
			]
		},
		{
			"name":"gaisou_03",
			"rotation":[
				-0.42377525568008423,
				0.40675240755081177,
				0.4067525565624237,
				0.69965660572052
			]
		},
		{
			"name":"gaisou_04",
			"rotation":[
				-0.6961395144462585,
				0.5069909691810608,
				0.5069908499717712,
				0.03619728609919548
			],
			"scale":[
				1,
				1.0000001192092896,
				1
			]
		},
		{
			"name":"gaisou_05",
			"rotation":[
				-0.7090367674827576,
				0.0114080049097538,
				0.011408058926463127,
				0.7049869894981384
			]
		},
		{
			"children":[
				0,
				1,
				2,
				3,
				4,
				5,
				6,
				7,
				8,
				9,
				10,
				11,
				12,
				13,
				14
			],
			"name":"Hip"
		},
		{
			"children":[
				15
			],
			"name":"Root",
			"rotation":[
				-2.6692537957728746e-08,
				-2.6692537957728746e-08,
				-0.7071067690849304,
				0.7071067690849304
			]
		},
		{
			"mesh":0,
			"name":"virus.007",
			"skin":0
		},
		{
			"children":[
				17,
				16
			],
			"name":"\u30a2\u30fc\u30de\u30c1\u30e5\u30a2"
		}
	],
	"animations":[
		{
			"channels":[
				{
					"sampler":0,
					"target":{
						"node":16,
						"path":"translation"
					}
				},
				{
					"sampler":1,
					"target":{
						"node":16,
						"path":"rotation"
					}
				},
				{
					"sampler":2,
					"target":{
						"node":16,
						"path":"scale"
					}
				},
				{
					"sampler":3,
					"target":{
						"node":15,
						"path":"translation"
					}
				},
				{
					"sampler":4,
					"target":{
						"node":15,
						"path":"rotation"
					}
				},
				{
					"sampler":5,
					"target":{
						"node":15,
						"path":"scale"
					}
				},
				{
					"sampler":6,
					"target":{
						"node":0,
						"path":"translation"
					}
				},
				{
					"sampler":7,
					"target":{
						"node":0,
						"path":"rotation"
					}
				},
				{
					"sampler":8,
					"target":{
						"node":0,
						"path":"scale"
					}
				},
				{
					"sampler":9,
					"target":{
						"node":1,
						"path":"translation"
					}
				},
				{
					"sampler":10,
					"target":{
						"node":1,
						"path":"rotation"
					}
				},
				{
					"sampler":11,
					"target":{
						"node":1,
						"path":"scale"
					}
				},
				{
					"sampler":12,
					"target":{
						"node":2,
						"path":"translation"
					}
				},
				{
					"sampler":13,
					"target":{
						"node":2,
						"path":"rotation"
					}
				},
				{
					"sampler":14,
					"target":{
						"node":2,
						"path":"scale"
					}
				},
				{
					"sampler":15,
					"target":{
						"node":3,
						"path":"translation"
					}
				},
				{
					"sampler":16,
					"target":{
						"node":3,
						"path":"rotation"
					}
				},
				{
					"sampler":17,
					"target":{
						"node":3,
						"path":"scale"
					}
				},
				{
					"sampler":18,
					"target":{
						"node":4,
						"path":"translation"
					}
				},
				{
					"sampler":19,
					"target":{
						"node":4,
						"path":"rotation"
					}
				},
				{
					"sampler":20,
					"target":{
						"node":4,
						"path":"scale"
					}
				},
				{
					"sampler":21,
					"target":{
						"node":5,
						"path":"translation"
					}
				},
				{
					"sampler":22,
					"target":{
						"node":5,
						"path":"rotation"
					}
				},
				{
					"sampler":23,
					"target":{
						"node":5,
						"path":"scale"
					}
				},
				{
					"sampler":24,
					"target":{
						"node":6,
						"path":"translation"
					}
				},
				{
					"sampler":25,
					"target":{
						"node":6,
						"path":"rotation"
					}
				},
				{
					"sampler":26,
					"target":{
						"node":6,
						"path":"scale"
					}
				},
				{
					"sampler":27,
					"target":{
						"node":7,
						"path":"translation"
					}
				},
				{
					"sampler":28,
					"target":{
						"node":7,
						"path":"rotation"
					}
				},
				{
					"sampler":29,
					"target":{
						"node":7,
						"path":"scale"
					}
				},
				{
					"sampler":30,
					"target":{
						"node":8,
						"path":"translation"
					}
				},
				{
					"sampler":31,
					"target":{
						"node":8,
						"path":"rotation"
					}
				},
				{
					"sampler":32,
					"target":{
						"node":8,
						"path":"scale"
					}
				},
				{
					"sampler":33,
					"target":{
						"node":9,
						"path":"translation"
					}
				},
				{
					"sampler":34,
					"target":{
						"node":9,
						"path":"rotation"
					}
				},
				{
					"sampler":35,
					"target":{
						"node":9,
						"path":"scale"
					}
				},
				{
					"sampler":36,
					"target":{
						"node":10,
						"path":"translation"
					}
				},
				{
					"sampler":37,
					"target":{
						"node":10,
						"path":"rotation"
					}
				},
				{
					"sampler":38,
					"target":{
						"node":10,
						"path":"scale"
					}
				},
				{
					"sampler":39,
					"target":{
						"node":11,
						"path":"translation"
					}
				},
				{
					"sampler":40,
					"target":{
						"node":11,
						"path":"rotation"
					}
				},
				{
					"sampler":41,
					"target":{
						"node":11,
						"path":"scale"
					}
				},
				{
					"sampler":42,
					"target":{
						"node":12,
						"path":"translation"
					}
				},
				{
					"sampler":43,
					"target":{
						"node":12,
						"path":"rotation"
					}
				},
				{
					"sampler":44,
					"target":{
						"node":12,
						"path":"scale"
					}
				},
				{
					"sampler":45,
					"target":{
						"node":13,
						"path":"translation"
					}
				},
				{
					"sampler":46,
					"target":{
						"node":13,
						"path":"rotation"
					}
				},
				{
					"sampler":47,
					"target":{
						"node":13,
						"path":"scale"
					}
				},
				{
					"sampler":48,
					"target":{
						"node":14,
						"path":"translation"
					}
				},
				{
					"sampler":49,
					"target":{
						"node":14,
						"path":"rotation"
					}
				},
				{
					"sampler":50,
					"target":{
						"node":14,
						"path":"scale"
					}
				}
			],
			"name":"\u30a2\u30fc\u30de\u30c1\u30e5\u30a2Action",
			"samplers":[
				{
					"input":9,
					"interpolation":"STEP",
					"output":10
				},
				{
					"input":9,
					"interpolation":"STEP",
					"output":11
				},
				{
					"input":9,
					"interpolation":"STEP",
					"output":12
				},
				{
					"input":9,
					"interpolation":"STEP",
					"output":13
				},
				{
					"input":14,
					"interpolation":"LINEAR",
					"output":15
				},
				{
					"input":14,
					"interpolation":"LINEAR",
					"output":16
				},
				{
					"input":9,
					"interpolation":"LINEAR",
					"output":17
				},
				{
					"input":9,
					"interpolation":"LINEAR",
					"output":18
				},
				{
					"input":14,
					"interpolation":"LINEAR",
					"output":19
				},
				{
					"input":9,
					"interpolation":"LINEAR",
					"output":20
				},
				{
					"input":9,
					"interpolation":"LINEAR",
					"output":21
				},
				{
					"input":14,
					"interpolation":"LINEAR",
					"output":22
				},
				{
					"input":9,
					"interpolation":"LINEAR",
					"output":23
				},
				{
					"input":9,
					"interpolation":"LINEAR",
					"output":24
				},
				{
					"input":14,
					"interpolation":"LINEAR",
					"output":25
				},
				{
					"input":9,
					"interpolation":"LINEAR",
					"output":26
				},
				{
					"input":9,
					"interpolation":"LINEAR",
					"output":27
				},
				{
					"input":14,
					"interpolation":"LINEAR",
					"output":28
				},
				{
					"input":9,
					"interpolation":"LINEAR",
					"output":29
				},
				{
					"input":9,
					"interpolation":"LINEAR",
					"output":30
				},
				{
					"input":14,
					"interpolation":"LINEAR",
					"output":31
				},
				{
					"input":9,
					"interpolation":"LINEAR",
					"output":32
				},
				{
					"input":9,
					"interpolation":"LINEAR",
					"output":33
				},
				{
					"input":14,
					"interpolation":"LINEAR",
					"output":34
				},
				{
					"input":9,
					"interpolation":"LINEAR",
					"output":35
				},
				{
					"input":9,
					"interpolation":"LINEAR",
					"output":36
				},
				{
					"input":14,
					"interpolation":"LINEAR",
					"output":37
				},
				{
					"input":9,
					"interpolation":"LINEAR",
					"output":38
				},
				{
					"input":9,
					"interpolation":"LINEAR",
					"output":39
				},
				{
					"input":14,
					"interpolation":"LINEAR",
					"output":40
				},
				{
					"input":9,
					"interpolation":"LINEAR",
					"output":41
				},
				{
					"input":9,
					"interpolation":"LINEAR",
					"output":42
				},
				{
					"input":14,
					"interpolation":"LINEAR",
					"output":43
				},
				{
					"input":9,
					"interpolation":"LINEAR",
					"output":44
				},
				{
					"input":9,
					"interpolation":"LINEAR",
					"output":45
				},
				{
					"input":14,
					"interpolation":"LINEAR",
					"output":46
				},
				{
					"input":9,
					"interpolation":"LINEAR",
					"output":47
				},
				{
					"input":9,
					"interpolation":"LINEAR",
					"output":48
				},
				{
					"input":9,
					"interpolation":"STEP",
					"output":49
				},
				{
					"input":9,
					"interpolation":"LINEAR",
					"output":50
				},
				{
					"input":9,
					"interpolation":"LINEAR",
					"output":51
				},
				{
					"input":9,
					"interpolation":"STEP",
					"output":52
				},
				{
					"input":9,
					"interpolation":"LINEAR",
					"output":53
				},
				{
					"input":9,
					"interpolation":"LINEAR",
					"output":54
				},
				{
					"input":9,
					"interpolation":"LINEAR",
					"output":55
				},
				{
					"input":9,
					"interpolation":"LINEAR",
					"output":56
				},
				{
					"input":9,
					"interpolation":"LINEAR",
					"output":57
				},
				{
					"input":9,
					"interpolation":"STEP",
					"output":58
				},
				{
					"input":9,
					"interpolation":"LINEAR",
					"output":59
				},
				{
					"input":9,
					"interpolation":"LINEAR",
					"output":60
				},
				{
					"input":9,
					"interpolation":"STEP",
					"output":61
				}
			]
		}
	],
	"materials":[
		{
			"doubleSided":true,
			"emissiveFactor":[
				1,
				1,
				1
			],
			"emissiveTexture":{
				"index":0
			},
			"name":"\u30de\u30c6\u30ea\u30a2\u30eb",
			"pbrMetallicRoughness":{
				"baseColorTexture":{
					"index":1
				},
				"metallicFactor":0,
				"metallicRoughnessTexture":{
					"index":2
				}
			}
		}
	],
	"meshes":[
		{
			"name":"Cube.007",
			"primitives":[
				{
					"attributes":{
						"COLOR_0":0,
						"POSITION":1,
						"NORMAL":2,
						"TEXCOORD_0":3,
						"TEXCOORD_1":4,
						"JOINTS_0":5,
						"WEIGHTS_0":6
					},
					"indices":7,
					"material":0
				}
			]
		}
	],
	"textures":[
		{
			"sampler":0,
			"source":0
		},
		{
			"sampler":0,
			"source":1
		},
		{
			"sampler":0,
			"source":2
		}
	],
	"images":[
		{
			"mimeType":"image/png",
			"name":"DefaultMaterial_Emissive",
			"uri":"DefaultMaterial_Emissive.png"
		},
		{
			"mimeType":"image/png",
			"name":"DefaultMaterial_Base_color",
			"uri":"DefaultMaterial_Base_color.png"
		},
		{
			"mimeType":"image/png",
			"name":"DefaultMaterial_Roughness",
			"uri":"DefaultMaterial_Roughness.png"
		}
	],
	"skins":[
		{
			"inverseBindMatrices":8,
			"joints":[
				16,
				15,
				0,
				1,
				2,
				3,
				4,
				5,
				6,
				7,
				8,
				9,
				10,
				11,
				12,
				13,
				14
			],
			"name":"\u30a2\u30fc\u30de\u30c1\u30e5\u30a2"
		}
	],
	"accessors":[
		{
			"bufferView":0,
			"componentType":5123,
			"count":2728,
			"normalized":true,
			"type":"VEC4"
		},
		{
			"bufferView":1,
			"componentType":5126,
			"count":2728,
			"max":[
				3.4229302406311035,
				3.7617926597595215,
				3.524890899658203
			],
			"min":[
				-3.7251648902893066,
				-3.4081931114196777,
				-3.2560176849365234
			],
			"type":"VEC3"
		},
		{
			"bufferView":2,
			"componentType":5126,
			"count":2728,
			"type":"VEC3"
		},
		{
			"bufferView":3,
			"componentType":5126,
			"count":2728,
			"type":"VEC2"
		},
		{
			"bufferView":4,
			"componentType":5126,
			"count":2728,
			"type":"VEC2"
		},
		{
			"bufferView":5,
			"componentType":5121,
			"count":2728,
			"type":"VEC4"
		},
		{
			"bufferView":6,
			"componentType":5126,
			"count":2728,
			"type":"VEC4"
		},
		{
			"bufferView":7,
			"componentType":5123,
			"count":2868,
			"type":"SCALAR"
		},
		{
			"bufferView":8,
			"componentType":5126,
			"count":17,
			"type":"MAT4"
		},
		{
			"bufferView":9,
			"componentType":5126,
			"count":2,
			"max":[
				1.6666666666666667
			],
			"min":[
				0
			],
			"type":"SCALAR"
		},
		{
			"bufferView":10,
			"componentType":5126,
			"count":2,
			"type":"VEC3"
		},
		{
			"bufferView":11,
			"componentType":5126,
			"count":2,
			"type":"VEC4"
		},
		{
			"bufferView":12,
			"componentType":5126,
			"count":2,
			"type":"VEC3"
		},
		{
			"bufferView":13,
			"componentType":5126,
			"count":2,
			"type":"VEC3"
		},
		{
			"bufferView":14,
			"componentType":5126,
			"count":41,
			"max":[
				1.6666666666666667
			],
			"min":[
				0
			],
			"type":"SCALAR"
		},
		{
			"bufferView":15,
			"componentType":5126,
			"count":41,
			"type":"VEC4"
		},
		{
			"bufferView":16,
			"componentType":5126,
			"count":41,
			"type":"VEC3"
		},
		{
			"bufferView":17,
			"componentType":5126,
			"count":2,
			"type":"VEC3"
		},
		{
			"bufferView":18,
			"componentType":5126,
			"count":2,
			"type":"VEC4"
		},
		{
			"bufferView":19,
			"componentType":5126,
			"count":41,
			"type":"VEC3"
		},
		{
			"bufferView":20,
			"componentType":5126,
			"count":2,
			"type":"VEC3"
		},
		{
			"bufferView":21,
			"componentType":5126,
			"count":2,
			"type":"VEC4"
		},
		{
			"bufferView":22,
			"componentType":5126,
			"count":41,
			"type":"VEC3"
		},
		{
			"bufferView":23,
			"componentType":5126,
			"count":2,
			"type":"VEC3"
		},
		{
			"bufferView":24,
			"componentType":5126,
			"count":2,
			"type":"VEC4"
		},
		{
			"bufferView":25,
			"componentType":5126,
			"count":41,
			"type":"VEC3"
		},
		{
			"bufferView":26,
			"componentType":5126,
			"count":2,
			"type":"VEC3"
		},
		{
			"bufferView":27,
			"componentType":5126,
			"count":2,
			"type":"VEC4"
		},
		{
			"bufferView":28,
			"componentType":5126,
			"count":41,
			"type":"VEC3"
		},
		{
			"bufferView":29,
			"componentType":5126,
			"count":2,
			"type":"VEC3"
		},
		{
			"bufferView":30,
			"componentType":5126,
			"count":2,
			"type":"VEC4"
		},
		{
			"bufferView":31,
			"componentType":5126,
			"count":41,
			"type":"VEC3"
		},
		{
			"bufferView":32,
			"componentType":5126,
			"count":2,
			"type":"VEC3"
		},
		{
			"bufferView":33,
			"componentType":5126,
			"count":2,
			"type":"VEC4"
		},
		{
			"bufferView":34,
			"componentType":5126,
			"count":41,
			"type":"VEC3"
		},
		{
			"bufferView":35,
			"componentType":5126,
			"count":2,
			"type":"VEC3"
		},
		{
			"bufferView":36,
			"componentType":5126,
			"count":2,
			"type":"VEC4"
		},
		{
			"bufferView":37,
			"componentType":5126,
			"count":41,
			"type":"VEC3"
		},
		{
			"bufferView":38,
			"componentType":5126,
			"count":2,
			"type":"VEC3"
		},
		{
			"bufferView":39,
			"componentType":5126,
			"count":2,
			"type":"VEC4"
		},
		{
			"bufferView":40,
			"componentType":5126,
			"count":41,
			"type":"VEC3"
		},
		{
			"bufferView":41,
			"componentType":5126,
			"count":2,
			"type":"VEC3"
		},
		{
			"bufferView":42,
			"componentType":5126,
			"count":2,
			"type":"VEC4"
		},
		{
			"bufferView":43,
			"componentType":5126,
			"count":41,
			"type":"VEC3"
		},
		{
			"bufferView":44,
			"componentType":5126,
			"count":2,
			"type":"VEC3"
		},
		{
			"bufferView":45,
			"componentType":5126,
			"count":2,
			"type":"VEC4"
		},
		{
			"bufferView":46,
			"componentType":5126,
			"count":41,
			"type":"VEC3"
		},
		{
			"bufferView":47,
			"componentType":5126,
			"count":2,
			"type":"VEC3"
		},
		{
			"bufferView":48,
			"componentType":5126,
			"count":2,
			"type":"VEC4"
		},
		{
			"bufferView":49,
			"componentType":5126,
			"count":2,
			"type":"VEC3"
		},
		{
			"bufferView":50,
			"componentType":5126,
			"count":2,
			"type":"VEC3"
		},
		{
			"bufferView":51,
			"componentType":5126,
			"count":2,
			"type":"VEC4"
		},
		{
			"bufferView":52,
			"componentType":5126,
			"count":2,
			"type":"VEC3"
		},
		{
			"bufferView":53,
			"componentType":5126,
			"count":2,
			"type":"VEC3"
		},
		{
			"bufferView":54,
			"componentType":5126,
			"count":2,
			"type":"VEC4"
		},
		{
			"bufferView":55,
			"componentType":5126,
			"count":2,
			"type":"VEC3"
		},
		{
			"bufferView":56,
			"componentType":5126,
			"count":2,
			"type":"VEC3"
		},
		{
			"bufferView":57,
			"componentType":5126,
			"count":2,
			"type":"VEC4"
		},
		{
			"bufferView":58,
			"componentType":5126,
			"count":2,
			"type":"VEC3"
		},
		{
			"bufferView":59,
			"componentType":5126,
			"count":2,
			"type":"VEC3"
		},
		{
			"bufferView":60,
			"componentType":5126,
			"count":2,
			"type":"VEC4"
		},
		{
			"bufferView":61,
			"componentType":5126,
			"count":2,
			"type":"VEC3"
		}
	],
	"bufferViews":[
		{
			"buffer":0,
			"byteLength":21824,
			"byteOffset":0,
			"target":34962
		},
		{
			"buffer":0,
			"byteLength":32736,
			"byteOffset":21824,
			"target":34962
		},
		{
			"buffer":0,
			"byteLength":32736,
			"byteOffset":54560,
			"target":34962
		},
		{
			"buffer":0,
			"byteLength":21824,
			"byteOffset":87296,
			"target":34962
		},
		{
			"buffer":0,
			"byteLength":21824,
			"byteOffset":109120,
			"target":34962
		},
		{
			"buffer":0,
			"byteLength":10912,
			"byteOffset":130944,
			"target":34962
		},
		{
			"buffer":0,
			"byteLength":43648,
			"byteOffset":141856,
			"target":34962
		},
		{
			"buffer":0,
			"byteLength":5736,
			"byteOffset":185504,
			"target":34963
		},
		{
			"buffer":0,
			"byteLength":1088,
			"byteOffset":191240
		},
		{
			"buffer":0,
			"byteLength":8,
			"byteOffset":192328
		},
		{
			"buffer":0,
			"byteLength":24,
			"byteOffset":192336
		},
		{
			"buffer":0,
			"byteLength":32,
			"byteOffset":192360
		},
		{
			"buffer":0,
			"byteLength":24,
			"byteOffset":192392
		},
		{
			"buffer":0,
			"byteLength":24,
			"byteOffset":192416
		},
		{
			"buffer":0,
			"byteLength":164,
			"byteOffset":192440
		},
		{
			"buffer":0,
			"byteLength":656,
			"byteOffset":192604
		},
		{
			"buffer":0,
			"byteLength":492,
			"byteOffset":193260
		},
		{
			"buffer":0,
			"byteLength":24,
			"byteOffset":193752
		},
		{
			"buffer":0,
			"byteLength":32,
			"byteOffset":193776
		},
		{
			"buffer":0,
			"byteLength":492,
			"byteOffset":193808
		},
		{
			"buffer":0,
			"byteLength":24,
			"byteOffset":194300
		},
		{
			"buffer":0,
			"byteLength":32,
			"byteOffset":194324
		},
		{
			"buffer":0,
			"byteLength":492,
			"byteOffset":194356
		},
		{
			"buffer":0,
			"byteLength":24,
			"byteOffset":194848
		},
		{
			"buffer":0,
			"byteLength":32,
			"byteOffset":194872
		},
		{
			"buffer":0,
			"byteLength":492,
			"byteOffset":194904
		},
		{
			"buffer":0,
			"byteLength":24,
			"byteOffset":195396
		},
		{
			"buffer":0,
			"byteLength":32,
			"byteOffset":195420
		},
		{
			"buffer":0,
			"byteLength":492,
			"byteOffset":195452
		},
		{
			"buffer":0,
			"byteLength":24,
			"byteOffset":195944
		},
		{
			"buffer":0,
			"byteLength":32,
			"byteOffset":195968
		},
		{
			"buffer":0,
			"byteLength":492,
			"byteOffset":196000
		},
		{
			"buffer":0,
			"byteLength":24,
			"byteOffset":196492
		},
		{
			"buffer":0,
			"byteLength":32,
			"byteOffset":196516
		},
		{
			"buffer":0,
			"byteLength":492,
			"byteOffset":196548
		},
		{
			"buffer":0,
			"byteLength":24,
			"byteOffset":197040
		},
		{
			"buffer":0,
			"byteLength":32,
			"byteOffset":197064
		},
		{
			"buffer":0,
			"byteLength":492,
			"byteOffset":197096
		},
		{
			"buffer":0,
			"byteLength":24,
			"byteOffset":197588
		},
		{
			"buffer":0,
			"byteLength":32,
			"byteOffset":197612
		},
		{
			"buffer":0,
			"byteLength":492,
			"byteOffset":197644
		},
		{
			"buffer":0,
			"byteLength":24,
			"byteOffset":198136
		},
		{
			"buffer":0,
			"byteLength":32,
			"byteOffset":198160
		},
		{
			"buffer":0,
			"byteLength":492,
			"byteOffset":198192
		},
		{
			"buffer":0,
			"byteLength":24,
			"byteOffset":198684
		},
		{
			"buffer":0,
			"byteLength":32,
			"byteOffset":198708
		},
		{
			"buffer":0,
			"byteLength":492,
			"byteOffset":198740
		},
		{
			"buffer":0,
			"byteLength":24,
			"byteOffset":199232
		},
		{
			"buffer":0,
			"byteLength":32,
			"byteOffset":199256
		},
		{
			"buffer":0,
			"byteLength":24,
			"byteOffset":199288
		},
		{
			"buffer":0,
			"byteLength":24,
			"byteOffset":199312
		},
		{
			"buffer":0,
			"byteLength":32,
			"byteOffset":199336
		},
		{
			"buffer":0,
			"byteLength":24,
			"byteOffset":199368
		},
		{
			"buffer":0,
			"byteLength":24,
			"byteOffset":199392
		},
		{
			"buffer":0,
			"byteLength":32,
			"byteOffset":199416
		},
		{
			"buffer":0,
			"byteLength":24,
			"byteOffset":199448
		},
		{
			"buffer":0,
			"byteLength":24,
			"byteOffset":199472
		},
		{
			"buffer":0,
			"byteLength":32,
			"byteOffset":199496
		},
		{
			"buffer":0,
			"byteLength":24,
			"byteOffset":199528
		},
		{
			"buffer":0,
			"byteLength":24,
			"byteOffset":199552
		},
		{
			"buffer":0,
			"byteLength":32,
			"byteOffset":199576
		},
		{
			"buffer":0,
			"byteLength":24,
			"byteOffset":199608
		}
	],
	"samplers":[
		{
			"magFilter":9729,
			"minFilter":9987
		}
	],
	"buffers":[
		{
			"byteLength":199632,
			"uri":"virus_cur.bin"
		}
	]
}
