{
	"asset":{
		"generator":"Khronos glTF Blender I/O v3.6.27",
		"version":"2.0"
	},
	"scene":0,
	"scenes":[
		{
			"name":"Scene",
			"nodes":[
				1
			]
		}
	],
	"nodes":[
		{
			"mesh":0,
			"name":"Axis"
		},
		{
			"children":[
				0
			],
			"name":"Skeleton"
		}
	],
	"materials":[
		{
			"doubleSided":true,
			"name":"Origin",
			"pbrMetallicRoughness":{
				"baseColorFactor":[
					0.8000000715255737,
					0.7232434749603271,
					0,
					1
				],
				"metallicFactor":0,
				"roughnessFactor":0.4000000059604645
			}
		},
		{
			"doubleSided":true,
			"name":"AxisX",
			"pbrMetallicRoughness":{
				"baseColorFactor":[
					0.8000000715255737,
					0.0009290043963119388,
					0.001822238089516759,
					1
				],
				"metallicFactor":0,
				"roughnessFactor":0.5
			}
		},
		{
			"doubleSided":true,
			"name":"AxisZ",
			"pbrMetallicRoughness":{
				"baseColorFactor":[
					0.003685035277158022,
					0,
					0.8000000715255737,
					1
				],
				"metallicFactor":0,
				"roughnessFactor":0.5
			}
		},
		{
			"doubleSided":true,
			"name":"AxisY",
			"pbrMetallicRoughness":{
				"baseColorFactor":[
					0.04036353901028633,
					0.8000000715255737,
					0,
					1
				],
				"metallicFactor":0,
				"roughnessFactor":0.5
			}
		}
	],
	"meshes":[
		{
			"name":"Axis",
			"primitives":[
				{
					"attributes":{
						"POSITION":0,
						"NORMAL":1,
						"TEXCOORD_0":2
					},
					"indices":3,
					"material":0
				},
				{
					"attributes":{
						"POSITION":4,
						"NORMAL":5,
						"TEXCOORD_0":6
					},
					"indices":7,
					"material":1
				},
				{
					"attributes":{
						"POSITION":8,
						"NORMAL":9,
						"TEXCOORD_0":10
					},
					"indices":11,
					"material":2
				},
				{
					"attributes":{
						"POSITION":12,
						"NORMAL":13,
						"TEXCOORD_0":14
					},
					"indices":15,
					"material":3
				}
			]
		}
	],
	"accessors":[
		{
			"bufferView":0,
			"componentType":5126,
			"count":14,
			"max":[
				0.2114061713218689,
				0.2848246097564697,
				0.284822940826416
			],
			"min":[
				-0.21140605211257935,
				-0.1613147258758545,
				-0.1613166332244873
			],
			"type":"VEC3"
		},
		{
			"bufferView":1,
			"componentType":5126,
			"count":14,
			"type":"VEC3"
		},
		{
			"bufferView":2,
			"componentType":5126,
			"count":14,
			"type":"VEC2"
		},
		{
			"bufferView":3,
			"componentType":5123,
			"count":18,
			"type":"SCALAR"
		},
		{
			"bufferView":4,
			"componentType":5126,
			"count":52,
			"max":[
				3.9614062309265137,
				0.8124105930328369,
				0.8124089241027832
			],
			"min":[
				0.2114061713218689,
				-0.6889007091522217,
				-0.6889024972915649
			],
			"type":"VEC3"
		},
		{
			"bufferView":5,
			"componentType":5126,
			"count":52,
			"type":"VEC3"
		},
		{
			"bufferView":6,
			"componentType":5126,
			"count":52,
			"type":"VEC2"
		},
		{
			"bufferView":7,
			"componentType":5123,
			"count":60,
			"type":"SCALAR"
		},
		{
			"bufferView":8,
			"componentType":5126,
			"count":54,
			"max":[
				0.7114061713218689,
				4.241720199584961,
				0.8124089241027832
			],
			"min":[
				-0.7114060521125793,
				0.2848244905471802,
				-0.6889022588729858
			],
			"type":"VEC3"
		},
		{
			"bufferView":9,
			"componentType":5126,
			"count":54,
			"type":"VEC3"
		},
		{
			"bufferView":10,
			"componentType":5126,
			"count":54,
			"type":"VEC2"
		},
		{
			"bufferView":11,
			"componentType":5123,
			"count":60,
			"type":"SCALAR"
		},
		{
			"bufferView":12,
			"componentType":5126,
			"count":54,
			"max":[
				0.7114061713218689,
				0.8124107122421265,
				-0.1613166332244873
			],
			"min":[
				-0.7114060521125793,
				-0.6889007091522217,
				-4.118210792541504
			],
			"type":"VEC3"
		},
		{
			"bufferView":13,
			"componentType":5126,
			"count":54,
			"type":"VEC3"
		},
		{
			"bufferView":14,
			"componentType":5126,
			"count":54,
			"type":"VEC2"
		},
		{
			"bufferView":15,
			"componentType":5123,
			"count":60,
			"type":"SCALAR"
		}
	],
	"bufferViews":[
		{
			"buffer":0,
			"byteLength":168,
			"byteOffset":0,
			"target":34962
		},
		{
			"buffer":0,
			"byteLength":168,
			"byteOffset":168,
			"target":34962
		},
		{
			"buffer":0,
			"byteLength":112,
			"byteOffset":336,
			"target":34962
		},
		{
			"buffer":0,
			"byteLength":36,
			"byteOffset":448,
			"target":34963
		},
		{
			"buffer":0,
			"byteLength":624,
			"byteOffset":484,
			"target":34962
		},
		{
			"buffer":0,
			"byteLength":624,
			"byteOffset":1108,
			"target":34962
		},
		{
			"buffer":0,
			"byteLength":416,
			"byteOffset":1732,
			"target":34962
		},
		{
			"buffer":0,
			"byteLength":120,
			"byteOffset":2148,
			"target":34963
		},
		{
			"buffer":0,
			"byteLength":648,
			"byteOffset":2268,
			"target":34962
		},
		{
			"buffer":0,
			"byteLength":648,
			"byteOffset":2916,
			"target":34962
		},
		{
			"buffer":0,
			"byteLength":432,
			"byteOffset":3564,
			"target":34962
		},
		{
			"buffer":0,
			"byteLength":120,
			"byteOffset":3996,
			"target":34963
		},
		{
			"buffer":0,
			"byteLength":648,
			"byteOffset":4116,
			"target":34962
		},
		{
			"buffer":0,
			"byteLength":648,
			"byteOffset":4764,
			"target":34962
		},
		{
			"buffer":0,
			"byteLength":432,
			"byteOffset":5412,
			"target":34962
		},
		{
			"buffer":0,
			"byteLength":120,
			"byteOffset":5844,
			"target":34963
		}
	],
	"buffers":[
		{
			"byteLength":5964,
			"uri":"Axis.bin"
		}
	]
}
